<?xml version="1.0" encoding="UTF-8" standalone="no"?>
<!DOCTYPE svg PUBLIC "-//W3C//DTD SVG 1.1//EN"
 "http://www.w3.org/Graphics/SVG/1.1/DTD/svg11.dtd">
<!-- Generated by graphviz version 2.38.0 (20140413.2041)
 -->
<!-- Title: controllers_diagram Pages: 1 -->
<svg width="711pt" height="753pt"
 viewBox="0.00 0.00 710.50 753.00" xmlns="http://www.w3.org/2000/svg" xmlns:xlink="http://www.w3.org/1999/xlink">
<g id="graph0" class="graph" transform="scale(1 1) rotate(0) translate(310.5 443.5)">
<title>controllers_diagram</title>
<polygon fill="none" stroke="none" points="-310.5,309.5 -310.5,-443.5 400,-443.5 400,309.5 -310.5,309.5"/>
<!-- _diagram_info -->
<g id="node1" class="node"><title>_diagram_info</title>
<text text-anchor="start" x="80" y="116.4" font-family="Times,serif" font-size="13.00">Controllers diagram</text>
<text text-anchor="start" x="80" y="130.4" font-family="Times,serif" font-size="13.00">Date: Aug 01 2018 &#45; 14:19</text>
<text text-anchor="start" x="80" y="144.4" font-family="Times,serif" font-size="13.00">Migration version: 20170406102111</text>
<text text-anchor="start" x="80" y="158.4" font-family="Times,serif" font-size="13.00">Generated by RailRoady 1.5.3</text>
<text text-anchor="start" x="80" y="172.4" font-family="Times,serif" font-size="13.00">http://railroady.prestonlee.com</text>
</g>
<!-- IframeController -->
<g id="node2" class="node"><title>IframeController</title>
<path fill="none" stroke="black" d="M-59.5,305C-59.5,305 29.5,305 29.5,305 35.5,305 41.5,299 41.5,293 41.5,293 41.5,209 41.5,209 41.5,203 35.5,197 29.5,197 29.5,197 -59.5,197 -59.5,197 -65.5,197 -71.5,203 -71.5,209 -71.5,209 -71.5,293 -71.5,293 -71.5,299 -65.5,305 -59.5,305"/>
<text text-anchor="middle" x="-15" y="212.2" font-family="Times,serif" font-size="14.00">IframeController</text>
<polyline fill="none" stroke="black" points="-71.5,220 41.5,220 "/>
<text text-anchor="start" x="-63.5" y="235.2" font-family="Times,serif" font-size="14.00">calendrier_iframe</text>
<polyline fill="none" stroke="black" points="-71.5,243 41.5,243 "/>
<polyline fill="none" stroke="black" points="-71.5,267 41.5,267 "/>
<text text-anchor="start" x="-63.5" y="282.2" font-family="Times,serif" font-size="14.00">_layout</text>
<text text-anchor="start" x="-63.5" y="297.2" font-family="Times,serif" font-size="14.00">get_lieu</text>
</g>
<!-- VillagesController -->
<g id="node3" class="node"><title>VillagesController</title>
<path fill="none" stroke="black" d="M-131.5,-180.5C-131.5,-180.5 -38.5,-180.5 -38.5,-180.5 -32.5,-180.5 -26.5,-186.5 -26.5,-192.5 -26.5,-192.5 -26.5,-381.5 -26.5,-381.5 -26.5,-387.5 -32.5,-393.5 -38.5,-393.5 -38.5,-393.5 -131.5,-393.5 -131.5,-393.5 -137.5,-393.5 -143.5,-387.5 -143.5,-381.5 -143.5,-381.5 -143.5,-192.5 -143.5,-192.5 -143.5,-186.5 -137.5,-180.5 -131.5,-180.5"/>
<text text-anchor="middle" x="-85" y="-378.3" font-family="Times,serif" font-size="14.00">VillagesController</text>
<polyline fill="none" stroke="black" points="-143.5,-370.5 -26.5,-370.5 "/>
<text text-anchor="start" x="-135.5" y="-355.3" font-family="Times,serif" font-size="14.00">create</text>
<text text-anchor="start" x="-135.5" y="-340.3" font-family="Times,serif" font-size="14.00">destroy</text>
<text text-anchor="start" x="-135.5" y="-325.3" font-family="Times,serif" font-size="14.00">edit</text>
<text text-anchor="start" x="-135.5" y="-310.3" font-family="Times,serif" font-size="14.00">index</text>
<text text-anchor="start" x="-135.5" y="-295.3" font-family="Times,serif" font-size="14.00">new</text>
<text text-anchor="start" x="-135.5" y="-280.3" font-family="Times,serif" font-size="14.00">show</text>
<text text-anchor="start" x="-135.5" y="-265.3" font-family="Times,serif" font-size="14.00">update</text>
<polyline fill="none" stroke="black" points="-143.5,-257.5 -26.5,-257.5 "/>
<polyline fill="none" stroke="black" points="-143.5,-233.5 -26.5,-233.5 "/>
<text text-anchor="start" x="-135.5" y="-218.3" font-family="Times,serif" font-size="14.00">_layout</text>
<text text-anchor="start" x="-135.5" y="-203.3" font-family="Times,serif" font-size="14.00">set_village</text>
<text text-anchor="start" x="-135.5" y="-188.3" font-family="Times,serif" font-size="14.00">village_params</text>
</g>
<!-- ClassificationsController -->
<g id="node4" class="node"><title>ClassificationsController</title>
<path fill="none" stroke="black" d="M84,71.5C84,71.5 212,71.5 212,71.5 218,71.5 224,65.5 224,59.5 224,59.5 224,-129.5 224,-129.5 224,-135.5 218,-141.5 212,-141.5 212,-141.5 84,-141.5 84,-141.5 78,-141.5 72,-135.5 72,-129.5 72,-129.5 72,59.5 72,59.5 72,65.5 78,71.5 84,71.5"/>
<text text-anchor="middle" x="148" y="-126.3" font-family="Times,serif" font-size="14.00">ClassificationsController</text>
<polyline fill="none" stroke="black" points="72,-118.5 224,-118.5 "/>
<text text-anchor="start" x="80" y="-103.3" font-family="Times,serif" font-size="14.00">create</text>
<text text-anchor="start" x="80" y="-88.3" font-family="Times,serif" font-size="14.00">destroy</text>
<text text-anchor="start" x="80" y="-73.3" font-family="Times,serif" font-size="14.00">edit</text>
<text text-anchor="start" x="80" y="-58.3" font-family="Times,serif" font-size="14.00">index</text>
<text text-anchor="start" x="80" y="-43.3" font-family="Times,serif" font-size="14.00">new</text>
<text text-anchor="start" x="80" y="-28.3" font-family="Times,serif" font-size="14.00">show</text>
<text text-anchor="start" x="80" y="-13.3" font-family="Times,serif" font-size="14.00">update</text>
<polyline fill="none" stroke="black" points="72,-5.5 224,-5.5 "/>
<polyline fill="none" stroke="black" points="72,18.5 224,18.5 "/>
<text text-anchor="start" x="80" y="33.7" font-family="Times,serif" font-size="14.00">_layout</text>
<text text-anchor="start" x="80" y="48.7" font-family="Times,serif" font-size="14.00">classification_params</text>
<text text-anchor="start" x="80" y="63.7" font-family="Times,serif" font-size="14.00">set_classification</text>
</g>
<!-- FilmsController -->
<g id="node5" class="node"><title>FilmsController</title>
<path fill="none" stroke="black" d="M192,-181C192,-181 272,-181 272,-181 278,-181 284,-187 284,-193 284,-193 284,-427 284,-427 284,-433 278,-439 272,-439 272,-439 192,-439 192,-439 186,-439 180,-433 180,-427 180,-427 180,-193 180,-193 180,-187 186,-181 192,-181"/>
<text text-anchor="middle" x="232" y="-423.8" font-family="Times,serif" font-size="14.00">FilmsController</text>
<polyline fill="none" stroke="black" points="180,-416 284,-416 "/>
<text text-anchor="start" x="188" y="-400.8" font-family="Times,serif" font-size="14.00">create</text>
<text text-anchor="start" x="188" y="-385.8" font-family="Times,serif" font-size="14.00">destroy</text>
<text text-anchor="start" x="188" y="-370.8" font-family="Times,serif" font-size="14.00">ecranvillage</text>
<text text-anchor="start" x="188" y="-355.8" font-family="Times,serif" font-size="14.00">edit</text>
<text text-anchor="start" x="188" y="-340.8" font-family="Times,serif" font-size="14.00">films_a_venir</text>
<text text-anchor="start" x="188" y="-325.8" font-family="Times,serif" font-size="14.00">index</text>
<text text-anchor="start" x="188" y="-310.8" font-family="Times,serif" font-size="14.00">new</text>
<text text-anchor="start" x="188" y="-295.8" font-family="Times,serif" font-size="14.00">show</text>
<text text-anchor="start" x="188" y="-280.8" font-family="Times,serif" font-size="14.00">tous_les_films</text>
<text text-anchor="start" x="188" y="-265.8" font-family="Times,serif" font-size="14.00">update</text>
<polyline fill="none" stroke="black" points="180,-258 284,-258 "/>
<polyline fill="none" stroke="black" points="180,-234 284,-234 "/>
<text text-anchor="start" x="188" y="-218.8" font-family="Times,serif" font-size="14.00">_layout</text>
<text text-anchor="start" x="188" y="-203.8" font-family="Times,serif" font-size="14.00">film_params</text>
<text text-anchor="start" x="188" y="-188.8" font-family="Times,serif" font-size="14.00">set_film</text>
</g>
<!-- DisponibilitesController -->
<g id="node6" class="node"><title>DisponibilitesController</title>
<path fill="none" stroke="black" d="M12,-180.5C12,-180.5 136,-180.5 136,-180.5 142,-180.5 148,-186.5 148,-192.5 148,-192.5 148,-381.5 148,-381.5 148,-387.5 142,-393.5 136,-393.5 136,-393.5 12,-393.5 12,-393.5 6,-393.5 0,-387.5 0,-381.5 0,-381.5 0,-192.5 0,-192.5 0,-186.5 6,-180.5 12,-180.5"/>
<text text-anchor="middle" x="74" y="-378.3" font-family="Times,serif" font-size="14.00">DisponibilitesController</text>
<polyline fill="none" stroke="black" points="0,-370.5 148,-370.5 "/>
<text text-anchor="start" x="8" y="-355.3" font-family="Times,serif" font-size="14.00">create</text>
<text text-anchor="start" x="8" y="-340.3" font-family="Times,serif" font-size="14.00">destroy</text>
<text text-anchor="start" x="8" y="-325.3" font-family="Times,serif" font-size="14.00">edit</text>
<text text-anchor="start" x="8" y="-310.3" font-family="Times,serif" font-size="14.00">index</text>
<text text-anchor="start" x="8" y="-295.3" font-family="Times,serif" font-size="14.00">new</text>
<text text-anchor="start" x="8" y="-280.3" font-family="Times,serif" font-size="14.00">show</text>
<text text-anchor="start" x="8" y="-265.3" font-family="Times,serif" font-size="14.00">update</text>
<polyline fill="none" stroke="black" points="0,-257.5 148,-257.5 "/>
<polyline fill="none" stroke="black" points="0,-233.5 148,-233.5 "/>
<text text-anchor="start" x="8" y="-218.3" font-family="Times,serif" font-size="14.00">_layout</text>
<text text-anchor="start" x="8" y="-203.3" font-family="Times,serif" font-size="14.00">disponibilite_params</text>
<text text-anchor="start" x="8" y="-188.3" font-family="Times,serif" font-size="14.00">set_disponibilite</text>
</g>
<!-- UserSessionsController -->
<g id="node7" class="node"><title>UserSessionsController</title>
<path fill="none" stroke="black" d="M264,71.5C264,71.5 384,71.5 384,71.5 390,71.5 396,65.5 396,59.5 396,59.5 396,-39.5 396,-39.5 396,-45.5 390,-51.5 384,-51.5 384,-51.5 264,-51.5 264,-51.5 258,-51.5 252,-45.5 252,-39.5 252,-39.5 252,59.5 252,59.5 252,65.5 258,71.5 264,71.5"/>
<text text-anchor="middle" x="324" y="-36.3" font-family="Times,serif" font-size="14.00">UserSessionsController</text>
<polyline fill="none" stroke="black" points="252,-28.5 396,-28.5 "/>
<text text-anchor="start" x="260" y="-13.3" font-family="Times,serif" font-size="14.00">create</text>
<text text-anchor="start" x="260" y="1.7" font-family="Times,serif" font-size="14.00">destroy</text>
<text text-anchor="start" x="260" y="16.7" font-family="Times,serif" font-size="14.00">new</text>
<polyline fill="none" stroke="black" points="252,24.5 396,24.5 "/>
<polyline fill="none" stroke="black" points="252,48.5 396,48.5 "/>
<text text-anchor="start" x="260" y="63.7" font-family="Times,serif" font-size="14.00">_layout</text>
</g>
<!-- CalendarController -->
<g id="node8" class="node"><title>CalendarController</title>
<path fill="none" stroke="black" d="M-294.5,-306.5C-294.5,-306.5 -197.5,-306.5 -197.5,-306.5 -191.5,-306.5 -185.5,-312.5 -185.5,-318.5 -185.5,-318.5 -185.5,-417.5 -185.5,-417.5 -185.5,-423.5 -191.5,-429.5 -197.5,-429.5 -197.5,-429.5 -294.5,-429.5 -294.5,-429.5 -300.5,-429.5 -306.5,-423.5 -306.5,-417.5 -306.5,-417.5 -306.5,-318.5 -306.5,-318.5 -306.5,-312.5 -300.5,-306.5 -294.5,-306.5"/>
<text text-anchor="middle" x="-246" y="-414.3" font-family="Times,serif" font-size="14.00">CalendarController</text>
<polyline fill="none" stroke="black" points="-306.5,-406.5 -185.5,-406.5 "/>
<text text-anchor="start" x="-298.5" y="-391.3" font-family="Times,serif" font-size="14.00">aide</text>
<text text-anchor="start" x="-298.5" y="-376.3" font-family="Times,serif" font-size="14.00">calendrier</text>
<polyline fill="none" stroke="black" points="-306.5,-368.5 -185.5,-368.5 "/>
<polyline fill="none" stroke="black" points="-306.5,-344.5 -185.5,-344.5 "/>
<text text-anchor="start" x="-298.5" y="-329.3" font-family="Times,serif" font-size="14.00">_layout</text>
<text text-anchor="start" x="-298.5" y="-314.3" font-family="Times,serif" font-size="14.00">get_lieu</text>
</g>
<!-- SeancesController -->
<g id="node9" class="node"><title>SeancesController</title>
<path fill="none" stroke="black" d="M-60,161.5C-60,161.5 32,161.5 32,161.5 38,161.5 44,155.5 44,149.5 44,149.5 44,-129.5 44,-129.5 44,-135.5 38,-141.5 32,-141.5 32,-141.5 -60,-141.5 -60,-141.5 -66,-141.5 -72,-135.5 -72,-129.5 -72,-129.5 -72,149.5 -72,149.5 -72,155.5 -66,161.5 -60,161.5"/>
<text text-anchor="middle" x="-14" y="-126.3" font-family="Times,serif" font-size="14.00">SeancesController</text>
<polyline fill="none" stroke="black" points="-72,-118.5 44,-118.5 "/>
<text text-anchor="start" x="-64" y="-103.3" font-family="Times,serif" font-size="14.00">a_completer</text>
<text text-anchor="start" x="-64" y="-88.3" font-family="Times,serif" font-size="14.00">create</text>
<text text-anchor="start" x="-64" y="-73.3" font-family="Times,serif" font-size="14.00">destroy</text>
<text text-anchor="start" x="-64" y="-58.3" font-family="Times,serif" font-size="14.00">edit</text>
<text text-anchor="start" x="-64" y="-43.3" font-family="Times,serif" font-size="14.00">edition_calendrier</text>
<text text-anchor="start" x="-64" y="-28.3" font-family="Times,serif" font-size="14.00">entrees</text>
<text text-anchor="start" x="-64" y="-13.3" font-family="Times,serif" font-size="14.00">index</text>
<text text-anchor="start" x="-64" y="1.7" font-family="Times,serif" font-size="14.00">mes_seances</text>
<text text-anchor="start" x="-64" y="16.7" font-family="Times,serif" font-size="14.00">new</text>
<text text-anchor="start" x="-64" y="31.7" font-family="Times,serif" font-size="14.00">seances_passees</text>
<text text-anchor="start" x="-64" y="46.7" font-family="Times,serif" font-size="14.00">show</text>
<text text-anchor="start" x="-64" y="61.7" font-family="Times,serif" font-size="14.00">update</text>
<polyline fill="none" stroke="black" points="-72,69.5 44,69.5 "/>
<polyline fill="none" stroke="black" points="-72,93.5 44,93.5 "/>
<text text-anchor="start" x="-64" y="108.7" font-family="Times,serif" font-size="14.00">_layout</text>
<text text-anchor="start" x="-64" y="123.7" font-family="Times,serif" font-size="14.00">get_lieu</text>
<text text-anchor="start" x="-64" y="138.7" font-family="Times,serif" font-size="14.00">seance_params</text>
<text text-anchor="start" x="-64" y="153.7" font-family="Times,serif" font-size="14.00">set_seance</text>
</g>
<!-- UsersController -->
<g id="node10" class="node"><title>UsersController</title>
<path fill="none" stroke="black" d="M-203.5,71.5C-203.5,71.5 -124.5,71.5 -124.5,71.5 -118.5,71.5 -112.5,65.5 -112.5,59.5 -112.5,59.5 -112.5,-129.5 -112.5,-129.5 -112.5,-135.5 -118.5,-141.5 -124.5,-141.5 -124.5,-141.5 -203.5,-141.5 -203.5,-141.5 -209.5,-141.5 -215.5,-135.5 -215.5,-129.5 -215.5,-129.5 -215.5,59.5 -215.5,59.5 -215.5,65.5 -209.5,71.5 -203.5,71.5"/>
<text text-anchor="middle" x="-164" y="-126.3" font-family="Times,serif" font-size="14.00">UsersController</text>
<polyline fill="none" stroke="black" points="-215.5,-118.5 -112.5,-118.5 "/>
<text text-anchor="start" x="-207.5" y="-103.3" font-family="Times,serif" font-size="14.00">create</text>
<text text-anchor="start" x="-207.5" y="-88.3" font-family="Times,serif" font-size="14.00">destroy</text>
<text text-anchor="start" x="-207.5" y="-73.3" font-family="Times,serif" font-size="14.00">edit</text>
<text text-anchor="start" x="-207.5" y="-58.3" font-family="Times,serif" font-size="14.00">index</text>
<text text-anchor="start" x="-207.5" y="-43.3" font-family="Times,serif" font-size="14.00">new</text>
<text text-anchor="start" x="-207.5" y="-28.3" font-family="Times,serif" font-size="14.00">show</text>
<text text-anchor="start" x="-207.5" y="-13.3" font-family="Times,serif" font-size="14.00">update</text>
<polyline fill="none" stroke="black" points="-215.5,-5.5 -112.5,-5.5 "/>
<polyline fill="none" stroke="black" points="-215.5,18.5 -112.5,18.5 "/>
<text text-anchor="start" x="-207.5" y="33.7" font-family="Times,serif" font-size="14.00">_layout</text>
<text text-anchor="start" x="-207.5" y="48.7" font-family="Times,serif" font-size="14.00">set_user</text>
<text text-anchor="start" x="-207.5" y="63.7" font-family="Times,serif" font-size="14.00">user_params</text>
</g>
<!-- ApplicationController -->
<g id="node11" class="node"><title>ApplicationController</title>
<path fill="none" stroke="black" d="M-240,251C-240,251 -128,251 -128,251 -122,251 -116,245 -116,239 -116,239 -116,125 -116,125 -116,119 -122,113 -128,113 -128,113 -240,113 -240,113 -246,113 -252,119 -252,125 -252,125 -252,239 -252,239 -252,245 -246,251 -240,251"/>
<text text-anchor="middle" x="-184" y="128.2" font-family="Times,serif" font-size="14.00">ApplicationController</text>
<polyline fill="none" stroke="black" points="-252,136 -116,136 "/>
<text text-anchor="start" x="-244" y="151.2" font-family="Times,serif" font-size="14.00">current_ability</text>
<text text-anchor="start" x="-244" y="166.2" font-family="Times,serif" font-size="14.00">set_locale</text>
<polyline fill="none" stroke="black" points="-252,174 -116,174 "/>
<polyline fill="none" stroke="black" points="-252,198 -116,198 "/>
<text text-anchor="start" x="-244" y="213.2" font-family="Times,serif" font-size="14.00">_layout</text>
<text text-anchor="start" x="-244" y="228.2" font-family="Times,serif" font-size="14.00">allow_iframe</text>
<text text-anchor="start" x="-244" y="243.2" font-family="Times,serif" font-size="14.00">not_authenticated</text>
</g>
</g>
</svg>
