<?xml version="1.0" encoding="UTF-8" standalone="no"?>
<!DOCTYPE svg PUBLIC "-//W3C//DTD SVG 1.1//EN"
 "http://www.w3.org/Graphics/SVG/1.1/DTD/svg11.dtd">
<!-- Generated by graphviz version 2.38.0 (20140413.2041)
 -->
<!-- Title: models_diagram Pages: 1 -->
<svg width="1608pt" height="671pt"
 viewBox="0.00 0.00 1608.00 671.00" xmlns="http://www.w3.org/2000/svg" xmlns:xlink="http://www.w3.org/1999/xlink">
<g id="graph0" class="graph" transform="scale(1 1) rotate(0) translate(4 667)">
<title>models_diagram</title>
<polygon fill="none" stroke="none" points="-4,4 -4,-667 1604,-667 1604,4 -4,4"/>
<!-- _diagram_info -->
<g id="node1" class="node"><title>_diagram_info</title>
<text text-anchor="start" x="8" y="-596.6" font-family="Times,serif" font-size="13.00">Models diagram</text>
<text text-anchor="start" x="8" y="-582.6" font-family="Times,serif" font-size="13.00">Date: Aug 01 2018 &#45; 14:19</text>
<text text-anchor="start" x="8" y="-568.6" font-family="Times,serif" font-size="13.00">Migration version: 20170406102111</text>
<text text-anchor="start" x="8" y="-554.6" font-family="Times,serif" font-size="13.00">Generated by RailRoady 1.5.3</text>
<text text-anchor="start" x="8" y="-540.6" font-family="Times,serif" font-size="13.00">http://railroady.prestonlee.com</text>
</g>
<!-- Seance -->
<g id="node2" class="node"><title>Seance</title>
<path fill="none" stroke="black" d="M384,-0.5C384,-0.5 604,-0.5 604,-0.5 610,-0.5 616,-6.5 616,-12.5 616,-12.5 616,-259.5 616,-259.5 616,-265.5 610,-271.5 604,-271.5 604,-271.5 384,-271.5 384,-271.5 378,-271.5 372,-265.5 372,-259.5 372,-259.5 372,-12.5 372,-12.5 372,-6.5 378,-0.5 384,-0.5"/>
<text text-anchor="middle" x="494" y="-256.3" font-family="Times,serif" font-size="14.00">Seance</text>
<polyline fill="none" stroke="black" points="372,-248.5 616,-248.5 "/>
<text text-anchor="start" x="380" y="-233.3" font-family="Times,serif" font-size="14.00">id :integer</text>
<text text-anchor="start" x="380" y="-218.3" font-family="Times,serif" font-size="14.00">projection :character varying</text>
<text text-anchor="start" x="380" y="-203.3" font-family="Times,serif" font-size="14.00">caisse :character varying</text>
<text text-anchor="start" x="380" y="-188.3" font-family="Times,serif" font-size="14.00">horaire :timestamp without time zone</text>
<text text-anchor="start" x="380" y="-173.3" font-family="Times,serif" font-size="14.00">created_at :timestamp without time zone</text>
<text text-anchor="start" x="380" y="-158.3" font-family="Times,serif" font-size="14.00">updated_at :timestamp without time zone</text>
<text text-anchor="start" x="380" y="-143.3" font-family="Times,serif" font-size="14.00">annulee :character varying</text>
<text text-anchor="start" x="380" y="-128.3" font-family="Times,serif" font-size="14.00">version :character varying</text>
<text text-anchor="start" x="380" y="-113.3" font-family="Times,serif" font-size="14.00">commentaire :character varying</text>
<text text-anchor="start" x="380" y="-98.3" font-family="Times,serif" font-size="14.00">film_id :integer</text>
<text text-anchor="start" x="380" y="-83.3" font-family="Times,serif" font-size="14.00">village_id :integer</text>
<text text-anchor="start" x="380" y="-68.3" font-family="Times,serif" font-size="14.00">extras :character varying</text>
<text text-anchor="start" x="380" y="-53.3" font-family="Times,serif" font-size="14.00">billets_adultes :integer</text>
<text text-anchor="start" x="380" y="-38.3" font-family="Times,serif" font-size="14.00">billets_enfants :integer</text>
<text text-anchor="start" x="380" y="-23.3" font-family="Times,serif" font-size="14.00">billets_scolaires :integer</text>
<text text-anchor="start" x="380" y="-8.3" font-family="Times,serif" font-size="14.00">total_billets :integer</text>
</g>
<!-- ApplicationRecord -->
<g id="node3" class="node"><title>ApplicationRecord</title>
<ellipse fill="none" stroke="black" cx="842" cy="-572" rx="77.1866" ry="18"/>
<text text-anchor="middle" x="842" y="-568.3" font-family="Times,serif" font-size="14.00">ApplicationRecord</text>
</g>
<!-- Ability -->
<g id="node4" class="node"><title>Ability</title>
<polygon fill="none" stroke="black" points="937.5,-549 937.5,-595 992.5,-595 992.5,-549 937.5,-549"/>
<text text-anchor="middle" x="965" y="-579.8" font-family="Times,serif" font-size="14.00">Ability</text>
<polyline fill="none" stroke="black" points="937.5,-572 992.5,-572 "/>
<text text-anchor="middle" x="965" y="-556.8" font-family="Times,serif" font-size="14.00"> </text>
</g>
<!-- Calendar -->
<g id="node5" class="node"><title>Calendar</title>
<polygon fill="none" stroke="black" points="1010.5,-549 1010.5,-595 1075.5,-595 1075.5,-549 1010.5,-549"/>
<text text-anchor="middle" x="1043" y="-579.8" font-family="Times,serif" font-size="14.00">Calendar</text>
<polyline fill="none" stroke="black" points="1010.5,-572 1075.5,-572 "/>
<text text-anchor="middle" x="1043" y="-556.8" font-family="Times,serif" font-size="14.00"> </text>
</g>
<!-- Disponibilite -->
<g id="node6" class="node"><title>Disponibilite</title>
<path fill="none" stroke="black" d="M1106,-511.5C1106,-511.5 1326,-511.5 1326,-511.5 1332,-511.5 1338,-517.5 1338,-523.5 1338,-523.5 1338,-620.5 1338,-620.5 1338,-626.5 1332,-632.5 1326,-632.5 1326,-632.5 1106,-632.5 1106,-632.5 1100,-632.5 1094,-626.5 1094,-620.5 1094,-620.5 1094,-523.5 1094,-523.5 1094,-517.5 1100,-511.5 1106,-511.5"/>
<text text-anchor="middle" x="1216" y="-617.3" font-family="Times,serif" font-size="14.00">Disponibilite</text>
<polyline fill="none" stroke="black" points="1094,-609.5 1338,-609.5 "/>
<text text-anchor="start" x="1102" y="-594.3" font-family="Times,serif" font-size="14.00">id :integer</text>
<text text-anchor="start" x="1102" y="-579.3" font-family="Times,serif" font-size="14.00">nom :character varying</text>
<text text-anchor="start" x="1102" y="-564.3" font-family="Times,serif" font-size="14.00">start_time :timestamp without time zone</text>
<text text-anchor="start" x="1102" y="-549.3" font-family="Times,serif" font-size="14.00">end_time :timestamp without time zone</text>
<text text-anchor="start" x="1102" y="-534.3" font-family="Times,serif" font-size="14.00">created_at :timestamp without time zone</text>
<text text-anchor="start" x="1102" y="-519.3" font-family="Times,serif" font-size="14.00">updated_at :timestamp without time zone</text>
</g>
<!-- Classification -->
<g id="node7" class="node"><title>Classification</title>
<path fill="none" stroke="black" d="M244,-526.5C244,-526.5 464,-526.5 464,-526.5 470,-526.5 476,-532.5 476,-538.5 476,-538.5 476,-605.5 476,-605.5 476,-611.5 470,-617.5 464,-617.5 464,-617.5 244,-617.5 244,-617.5 238,-617.5 232,-611.5 232,-605.5 232,-605.5 232,-538.5 232,-538.5 232,-532.5 238,-526.5 244,-526.5"/>
<text text-anchor="middle" x="354" y="-602.3" font-family="Times,serif" font-size="14.00">Classification</text>
<polyline fill="none" stroke="black" points="232,-594.5 476,-594.5 "/>
<text text-anchor="start" x="240" y="-579.3" font-family="Times,serif" font-size="14.00">id :integer</text>
<text text-anchor="start" x="240" y="-564.3" font-family="Times,serif" font-size="14.00">nom_classification :character varying</text>
<text text-anchor="start" x="240" y="-549.3" font-family="Times,serif" font-size="14.00">created_at :timestamp without time zone</text>
<text text-anchor="start" x="240" y="-534.3" font-family="Times,serif" font-size="14.00">updated_at :timestamp without time zone</text>
</g>
<!-- Classification&#45;&gt;Seance -->
<g id="edge2" class="edge"><title>Classification&#45;&gt;Seance</title>
<path fill="none" stroke="#d13b9c" d="M346.371,-516.036C340.972,-461.532 338.467,-376.489 363,-308 366.31,-298.758 370.319,-289.614 374.849,-280.644"/>
<polygon fill="#d13b9c" stroke="#d13b9c" points="346.392,-516.237 342.969,-526.655 346.918,-521.209 347.444,-526.181 347.444,-526.181 347.444,-526.181 346.918,-521.209 351.919,-525.708 346.392,-516.237 346.392,-516.237"/>
<polygon fill="#d13b9c" stroke="#d13b9c" points="374.882,-280.581 383.526,-273.833 377.213,-276.158 379.545,-271.735 379.545,-271.735 379.545,-271.735 377.213,-276.158 375.564,-269.636 374.882,-280.581 374.882,-280.581"/>
</g>
<!-- Film -->
<g id="node9" class="node"><title>Film</title>
<path fill="none" stroke="black" d="M384,-308.5C384,-308.5 604,-308.5 604,-308.5 610,-308.5 616,-314.5 616,-320.5 616,-320.5 616,-432.5 616,-432.5 616,-438.5 610,-444.5 604,-444.5 604,-444.5 384,-444.5 384,-444.5 378,-444.5 372,-438.5 372,-432.5 372,-432.5 372,-320.5 372,-320.5 372,-314.5 378,-308.5 384,-308.5"/>
<text text-anchor="middle" x="494" y="-429.3" font-family="Times,serif" font-size="14.00">Film</text>
<polyline fill="none" stroke="black" points="372,-421.5 616,-421.5 "/>
<text text-anchor="start" x="380" y="-406.3" font-family="Times,serif" font-size="14.00">id :integer</text>
<text text-anchor="start" x="380" y="-391.3" font-family="Times,serif" font-size="14.00">titrefilm :character varying</text>
<text text-anchor="start" x="380" y="-376.3" font-family="Times,serif" font-size="14.00">description :character varying</text>
<text text-anchor="start" x="380" y="-361.3" font-family="Times,serif" font-size="14.00">created_at :timestamp without time zone</text>
<text text-anchor="start" x="380" y="-346.3" font-family="Times,serif" font-size="14.00">updated_at :timestamp without time zone</text>
<text text-anchor="start" x="380" y="-331.3" font-family="Times,serif" font-size="14.00">distribution :character varying</text>
<text text-anchor="start" x="380" y="-316.3" font-family="Times,serif" font-size="14.00">affiche :character varying</text>
</g>
<!-- Classification&#45;&gt;Film -->
<g id="edge1" class="edge"><title>Classification&#45;&gt;Film</title>
<path fill="none" stroke="#892d8a" d="M392.373,-517.963C406.921,-497.856 423.775,-474.56 439.526,-452.791"/>
<polygon fill="#892d8a" stroke="#892d8a" points="392.333,-518.019 382.825,-523.483 389.402,-522.07 386.471,-526.121 386.471,-526.121 386.471,-526.121 389.402,-522.07 390.117,-528.759 392.333,-518.019 392.333,-518.019"/>
<polygon fill="#892d8a" stroke="#892d8a" points="439.639,-452.634 449.147,-447.17 442.57,-448.583 445.501,-444.532 445.501,-444.532 445.501,-444.532 442.57,-448.583 441.855,-441.894 439.639,-452.634 439.639,-452.634"/>
</g>
<!-- Village -->
<g id="node8" class="node"><title>Village</title>
<path fill="none" stroke="black" d="M515,-519C515,-519 735,-519 735,-519 741,-519 747,-525 747,-531 747,-531 747,-613 747,-613 747,-619 741,-625 735,-625 735,-625 515,-625 515,-625 509,-625 503,-619 503,-613 503,-613 503,-531 503,-531 503,-525 509,-519 515,-519"/>
<text text-anchor="middle" x="625" y="-609.8" font-family="Times,serif" font-size="14.00">Village</text>
<polyline fill="none" stroke="black" points="503,-602 747,-602 "/>
<text text-anchor="start" x="511" y="-586.8" font-family="Times,serif" font-size="14.00">id :integer</text>
<text text-anchor="start" x="511" y="-571.8" font-family="Times,serif" font-size="14.00">commune :character varying</text>
<text text-anchor="start" x="511" y="-556.8" font-family="Times,serif" font-size="14.00">salle :character varying</text>
<text text-anchor="start" x="511" y="-541.8" font-family="Times,serif" font-size="14.00">created_at :timestamp without time zone</text>
<text text-anchor="start" x="511" y="-526.8" font-family="Times,serif" font-size="14.00">updated_at :timestamp without time zone</text>
</g>
<!-- Village&#45;&gt;Seance -->
<g id="edge3" class="edge"><title>Village&#45;&gt;Seance</title>
<path fill="none" stroke="#c1f3ef" d="M635.739,-510.826C642.985,-456.335 647.589,-374.632 625,-308 621.848,-298.703 617.965,-289.514 613.534,-280.51"/>
<ellipse fill="none" stroke="#c1f3ef" cx="635.156" cy="-515.035" rx="4.00001" ry="4.00001"/>
<polygon fill="#c1f3ef" stroke="#c1f3ef" points="613.508,-280.459 612.928,-269.509 611.218,-276.015 608.928,-271.57 608.928,-271.57 608.928,-271.57 611.218,-276.015 604.928,-273.631 613.508,-280.459 613.508,-280.459"/>
</g>
<!-- Village&#45;&gt;Film -->
<g id="edge4" class="edge"><title>Village&#45;&gt;Film</title>
<path fill="none" stroke="#d483ef" d="M583.988,-510.421C571.672,-492.229 558.006,-472.044 545.122,-453.012"/>
<polygon fill="#d483ef" stroke="#d483ef" points="584.116,-510.61 585.996,-521.414 586.919,-514.751 589.722,-518.891 589.722,-518.891 589.722,-518.891 586.919,-514.751 593.448,-516.368 584.116,-510.61 584.116,-510.61"/>
<polygon fill="#d483ef" stroke="#d483ef" points="545.066,-452.93 543.186,-442.126 542.263,-448.789 539.46,-444.649 539.46,-444.649 539.46,-444.649 542.263,-448.789 535.733,-447.171 545.066,-452.93 545.066,-452.93"/>
</g>
<!-- Film&#45;&gt;Seance -->
<g id="edge5" class="edge"><title>Film&#45;&gt;Seance</title>
<path fill="none" stroke="#dd8cb7" d="M494,-300.165C494,-294.316 494,-288.304 494,-282.196"/>
<ellipse fill="none" stroke="#dd8cb7" cx="494" cy="-304.43" rx="4" ry="4"/>
<polygon fill="#dd8cb7" stroke="#dd8cb7" points="494,-281.839 498.5,-271.839 494,-276.839 494,-271.839 494,-271.839 494,-271.839 494,-276.839 489.5,-271.839 494,-281.839 494,-281.839"/>
</g>
<!-- User -->
<g id="node10" class="node"><title>User</title>
<path fill="none" stroke="black" d="M1368,-481.5C1368,-481.5 1588,-481.5 1588,-481.5 1594,-481.5 1600,-487.5 1600,-493.5 1600,-493.5 1600,-650.5 1600,-650.5 1600,-656.5 1594,-662.5 1588,-662.5 1588,-662.5 1368,-662.5 1368,-662.5 1362,-662.5 1356,-656.5 1356,-650.5 1356,-650.5 1356,-493.5 1356,-493.5 1356,-487.5 1362,-481.5 1368,-481.5"/>
<text text-anchor="middle" x="1478" y="-647.3" font-family="Times,serif" font-size="14.00">User</text>
<polyline fill="none" stroke="black" points="1356,-639.5 1600,-639.5 "/>
<text text-anchor="start" x="1364" y="-624.3" font-family="Times,serif" font-size="14.00">id :bigint</text>
<text text-anchor="start" x="1364" y="-609.3" font-family="Times,serif" font-size="14.00">email :character varying</text>
<text text-anchor="start" x="1364" y="-594.3" font-family="Times,serif" font-size="14.00">crypted_password :character varying</text>
<text text-anchor="start" x="1364" y="-579.3" font-family="Times,serif" font-size="14.00">salt :character varying</text>
<text text-anchor="start" x="1364" y="-564.3" font-family="Times,serif" font-size="14.00">created_at :timestamp without time zone</text>
<text text-anchor="start" x="1364" y="-549.3" font-family="Times,serif" font-size="14.00">updated_at :timestamp without time zone</text>
<text text-anchor="start" x="1364" y="-534.3" font-family="Times,serif" font-size="14.00">nom :character varying</text>
<text text-anchor="start" x="1364" y="-519.3" font-family="Times,serif" font-size="14.00">prenom :character varying</text>
<text text-anchor="start" x="1364" y="-504.3" font-family="Times,serif" font-size="14.00">telephone :character varying</text>
<text text-anchor="start" x="1364" y="-489.3" font-family="Times,serif" font-size="14.00">role :character varying</text>
</g>
</g>
</svg>
