<?xml version="1.0" encoding="UTF-8" standalone="no"?>
<!DOCTYPE svg PUBLIC "-//W3C//DTD SVG 1.1//EN"
 "http://www.w3.org/Graphics/SVG/1.1/DTD/svg11.dtd">
<!-- Generated by graphviz version 2.38.0 (20140413.2041)
 -->
<!-- Title: models_diagram Pages: 1 -->
<svg width="982pt" height="230pt"
 viewBox="0.00 0.00 982.30 230.00" xmlns="http://www.w3.org/2000/svg" xmlns:xlink="http://www.w3.org/1999/xlink">
<g id="graph0" class="graph" transform="scale(1 1) rotate(0) translate(4 226)">
<title>models_diagram</title>
<polygon fill="none" stroke="none" points="-4,4 -4,-226 978.298,-226 978.298,4 -4,4"/>
<!-- _diagram_info -->
<g id="node1" class="node"><title>_diagram_info</title>
<text text-anchor="start" x="8" y="-207.6" font-family="Times,serif" font-size="13.00">Models diagram</text>
<text text-anchor="start" x="8" y="-193.6" font-family="Times,serif" font-size="13.00">Date: Aug 01 2018 &#45; 14:19</text>
<text text-anchor="start" x="8" y="-179.6" font-family="Times,serif" font-size="13.00">Migration version: 20170406102111</text>
<text text-anchor="start" x="8" y="-165.6" font-family="Times,serif" font-size="13.00">Generated by RailRoady 1.5.3</text>
<text text-anchor="start" x="8" y="-151.6" font-family="Times,serif" font-size="13.00">http://railroady.prestonlee.com</text>
</g>
<!-- Seance -->
<g id="node2" class="node"><title>Seance</title>
<ellipse fill="none" stroke="black" cx="348" cy="-18" rx="35.9954" ry="18"/>
<text text-anchor="middle" x="348" y="-14.3" font-family="Times,serif" font-size="14.00">Seance</text>
</g>
<!-- ApplicationRecord -->
<g id="node3" class="node"><title>ApplicationRecord</title>
<ellipse fill="none" stroke="black" cx="537" cy="-183" rx="77.1866" ry="18"/>
<text text-anchor="middle" x="537" y="-179.3" font-family="Times,serif" font-size="14.00">ApplicationRecord</text>
</g>
<!-- Ability -->
<g id="node4" class="node"><title>Ability</title>
<polygon fill="none" stroke="black" points="687.5,-201 632.5,-201 632.5,-165 687.5,-165 687.5,-201"/>
<text text-anchor="middle" x="660" y="-179.3" font-family="Times,serif" font-size="14.00">Ability</text>
</g>
<!-- Calendar -->
<g id="node5" class="node"><title>Calendar</title>
<polygon fill="none" stroke="black" points="770.5,-201 705.5,-201 705.5,-165 770.5,-165 770.5,-201"/>
<text text-anchor="middle" x="738" y="-179.3" font-family="Times,serif" font-size="14.00">Calendar</text>
</g>
<!-- Disponibilite -->
<g id="node6" class="node"><title>Disponibilite</title>
<ellipse fill="none" stroke="black" cx="845" cy="-183" rx="56.59" ry="18"/>
<text text-anchor="middle" x="845" y="-179.3" font-family="Times,serif" font-size="14.00">Disponibilite</text>
</g>
<!-- Classification -->
<g id="node7" class="node"><title>Classification</title>
<ellipse fill="none" stroke="black" cx="291" cy="-183" rx="59.2899" ry="18"/>
<text text-anchor="middle" x="291" y="-179.3" font-family="Times,serif" font-size="14.00">Classification</text>
</g>
<!-- Classification&#45;&gt;Seance -->
<g id="edge2" class="edge"><title>Classification&#45;&gt;Seance</title>
<path fill="none" stroke="#b668f7" d="M292.68,-154.961C294.849,-132.117 299.79,-98.9151 311,-72 315.207,-61.8998 321.576,-51.8053 327.851,-43.1772"/>
<polygon fill="#b668f7" stroke="#b668f7" points="292.677,-155.003 287.36,-164.594 292.261,-159.986 291.844,-164.969 291.844,-164.969 291.844,-164.969 292.261,-159.986 296.329,-165.343 292.677,-155.003 292.677,-155.003"/>
<polygon fill="#b668f7" stroke="#b668f7" points="327.95,-43.0467 337.59,-37.8189 330.98,-39.0693 334.01,-35.092 334.01,-35.092 334.01,-35.092 330.98,-39.0693 330.43,-32.365 327.95,-43.0467 327.95,-43.0467"/>
</g>
<!-- Film -->
<g id="node9" class="node"><title>Film</title>
<ellipse fill="none" stroke="black" cx="348" cy="-90" rx="27.8951" ry="18"/>
<text text-anchor="middle" x="348" y="-86.3" font-family="Times,serif" font-size="14.00">Film</text>
</g>
<!-- Classification&#45;&gt;Film -->
<g id="edge1" class="edge"><title>Classification&#45;&gt;Film</title>
<path fill="none" stroke="#e8a2b5" d="M307.208,-156.124C315.157,-143.434 324.683,-128.225 332.53,-115.697"/>
<polygon fill="#e8a2b5" stroke="#e8a2b5" points="307.03,-156.409 297.908,-162.495 304.375,-160.646 301.721,-164.884 301.721,-164.884 301.721,-164.884 304.375,-160.646 305.535,-167.272 307.03,-156.409 307.03,-156.409"/>
<polygon fill="#e8a2b5" stroke="#e8a2b5" points="332.592,-115.598 341.714,-109.512 335.247,-111.361 337.901,-107.123 337.901,-107.123 337.901,-107.123 335.247,-111.361 334.087,-104.734 332.592,-115.598 332.592,-115.598"/>
</g>
<!-- Village -->
<g id="node8" class="node"><title>Village</title>
<ellipse fill="none" stroke="black" cx="405" cy="-183" rx="36.2938" ry="18"/>
<text text-anchor="middle" x="405" y="-179.3" font-family="Times,serif" font-size="14.00">Village</text>
</g>
<!-- Village&#45;&gt;Seance -->
<g id="edge3" class="edge"><title>Village&#45;&gt;Seance</title>
<path fill="none" stroke="#a862de" d="M403.49,-156.798C401.415,-133.924 396.515,-99.6459 385,-72 380.793,-61.8998 374.424,-51.8053 368.149,-43.1772"/>
<ellipse fill="none" stroke="#a862de" cx="403.831" cy="-160.982" rx="4" ry="4"/>
<polygon fill="#a862de" stroke="#a862de" points="368.05,-43.0467 365.57,-32.365 365.02,-39.0693 361.99,-35.092 361.99,-35.092 361.99,-35.092 365.02,-39.0693 358.41,-37.8189 368.05,-43.0467 368.05,-43.0467"/>
</g>
<!-- Village&#45;&gt;Film -->
<g id="edge4" class="edge"><title>Village&#45;&gt;Film</title>
<path fill="none" stroke="#2473cb" d="M389.028,-156.501C381.019,-143.715 371.362,-128.297 363.429,-115.633"/>
<polygon fill="#2473cb" stroke="#2473cb" points="389.237,-156.834 390.732,-167.698 391.891,-161.072 394.545,-165.309 394.545,-165.309 394.545,-165.309 391.891,-161.072 398.359,-162.92 389.237,-156.834 389.237,-156.834"/>
<polygon fill="#2473cb" stroke="#2473cb" points="363.315,-115.449 361.82,-104.586 360.66,-111.212 358.006,-106.975 358.006,-106.975 358.006,-106.975 360.66,-111.212 354.192,-109.363 363.315,-115.449 363.315,-115.449"/>
</g>
<!-- Film&#45;&gt;Seance -->
<g id="edge5" class="edge"><title>Film&#45;&gt;Seance</title>
<path fill="none" stroke="#762f94" d="M348,-63.6398C348,-58.0629 348,-52.1319 348,-46.4761"/>
<ellipse fill="none" stroke="#762f94" cx="348" cy="-67.6966" rx="4" ry="4"/>
<polygon fill="#762f94" stroke="#762f94" points="348,-46.1043 352.5,-36.1043 348,-41.1043 348,-36.1043 348,-36.1043 348,-36.1043 348,-41.1043 343.5,-36.1044 348,-46.1043 348,-46.1043"/>
</g>
<!-- User -->
<g id="node10" class="node"><title>User</title>
<ellipse fill="none" stroke="black" cx="947" cy="-183" rx="27.0966" ry="18"/>
<text text-anchor="middle" x="947" y="-179.3" font-family="Times,serif" font-size="14.00">User</text>
</g>
</g>
</svg>
